<svg xmlns="http://www.w3.org/2000/svg" viewBox="0 0 512 768" role="img" aria-label="UNO load card">
  <defs>
    <linearGradient id="frame" x1="0" y1="0" x2="1" y2="1">
      <stop offset="0%" stop-color="#53d4ff"/>
      <stop offset="48%" stop-color="#ffe36e"/>
      <stop offset="100%" stop-color="#ff5a72"/>
    </linearGradient>
    <linearGradient id="body" x1="0" y1="0" x2="1" y2="1">
      <stop offset="0%" stop-color="#101924"/>
      <stop offset="100%" stop-color="#05090f"/>
    </linearGradient>
    <radialGradient id="glow" cx="50%" cy="42%" r="62%">
      <stop offset="0%" stop-color="#38bdf8" stop-opacity="0.96"/>
      <stop offset="42%" stop-color="#3ddc97" stop-opacity="0.62"/>
      <stop offset="72%" stop-color="#ffcf3e" stop-opacity="0.22"/>
      <stop offset="100%" stop-color="#081119" stop-opacity="0"/>
    </radialGradient>
    <linearGradient id="ring" x1="0" y1="0" x2="1" y2="1">
      <stop offset="0%" stop-color="#ffffff" stop-opacity="0.75"/>
      <stop offset="100%" stop-color="#ffffff" stop-opacity="0.08"/>
    </linearGradient>
  </defs>

  <rect x="18" y="18" width="476" height="732" rx="54" fill="url(#body)" stroke="url(#frame)" stroke-width="16"/>
  <rect x="34" y="34" width="444" height="700" rx="42" fill="none" stroke="#ffffff" stroke-opacity="0.08"/>
  <ellipse cx="256" cy="352" rx="178" ry="226" fill="url(#glow)"/>

  <g transform="translate(256 350) rotate(-18)">
    <ellipse cx="0" cy="0" rx="170" ry="228" fill="#151d29" stroke="url(#ring)" stroke-width="7"/>
    <ellipse cx="0" cy="0" rx="146" ry="194" fill="#090f17"/>
    <path d="M-70 -138 C24 -182 136 -130 122 -24 C111 60 54 121 -29 154 C-109 186 -181 134 -182 54 C-183 -22 -138 -94 -70 -138 Z" fill="#ffb000"/>
    <text x="0" y="30" fill="#fff8e8" font-family="Tajawal, Arial, sans-serif" font-size="94" font-weight="900" text-anchor="middle">LOAD</text>
  </g>

  <g fill="#eaf6ff" font-family="Tajawal, Arial, sans-serif" text-anchor="middle">
    <text x="256" y="102" font-size="40" font-weight="900">UNO ARENA</text>
    <text x="256" y="660" font-size="34" font-weight="700" opacity="0.95">BY ABDALLAH</text>
  </g>
</svg>
