<svg xmlns="http://www.w3.org/2000/svg" width="240" height="360" viewBox="0 0 240 360">
<defs>
  <filter id="shadow" x="-20%" y="-20%" width="140%" height="140%">
    <feDropShadow dx="0" dy="10" stdDeviation="8" flood-color="#000000" flood-opacity="0.22"/>
  </filter>
</defs>
<rect x="8" y="8" width="224" height="344" rx="26" fill="#ffffff" filter="url(#shadow)"/>
<rect x="20" y="20" width="200" height="320" rx="22" fill="#101827"/>
<ellipse cx="120" cy="180" rx="74" ry="120" fill="none" stroke="rgba(255,255,255,.76)" stroke-width="10" transform="rotate(34 120 180)"/>
<path d="M120 92 C155 110 174 144 176 176 C177 215 153 250 120 268 C87 250 63 215 64 176 C66 144 84 110 120 92 Z" fill="#fff" opacity=".12"/>
<path d="M120 112 L164 156 L120 200 L76 156 Z" fill="#ef4444"/>
<path d="M120 200 L164 156 L164 220 L120 264 Z" fill="#0ea5e9"/>
<path d="M120 200 L76 156 L76 220 L120 264 Z" fill="#22c55e"/>
<path d="M120 112 L164 156 L120 156 L76 156 Z" fill="#facc15"/>
<text x="32" y="58" font-family="Arial, sans-serif" font-size="34" font-weight="900" fill="#ffffff">+4</text>
<text x="210" y="316" font-family="Arial, sans-serif" font-size="34" font-weight="900" fill="#ffffff" text-anchor="end">+4</text>
<text x="208" y="44" font-family="Arial, sans-serif" font-size="18" fill="rgba(255,255,255,.75)" text-anchor="end">A</text>
</svg>